<svg xmlns="http://www.w3.org/2000/svg" version="1.0" width="1024.000000pt" height="1024.000000pt" viewBox="0 0 1024.000000 1024.000000" preserveAspectRatio="xMidYMid meet"><defs><linearGradient id="neonGradient" gradientUnits="userSpaceOnUse" x1="2500" y1="9000" x2="8500" y2="4000" gradientTransform="scale(1)"><stop offset="0%" style="stop-color:#FF2D95;stop-opacity:1"/><stop offset="30%" style="stop-color:#C040E0;stop-opacity:1"/><stop offset="55%" style="stop-color:#7B5EF0;stop-opacity:1"/><stop offset="80%" style="stop-color:#4D8DF7;stop-opacity:1"/><stop offset="100%" style="stop-color:#00D4FF;stop-opacity:1"/></linearGradient><filter id="neonGlow" x="-25%" y="-25%" width="150%" height="150%"><feGaussianBlur in="SourceGraphic" stdDeviation="60" result="blur1"/><feColorMatrix in="blur1" type="matrix" result="glow1" values="1.2 0 0 0 0 0 0.6 0 0 0 0 0 1.5 0 0.1 0 0 0 0.5 0"/><feGaussianBlur in="SourceGraphic" stdDeviation="25" result="blur2"/><feColorMatrix in="blur2" type="matrix" result="glow2" values="1.3 0 0 0 0 0 0.7 0 0 0 0 0 1.4 0 0.05 0 0 0 0.6 0"/><feMerge><feMergeNode in="glow1"/><feMergeNode in="glow2"/><feMergeNode in="SourceGraphic"/></feMerge></filter></defs><g transform="translate(0.000000,1024.000000) scale(0.100000,-0.100000)" fill="url(#neonGradient)" stroke="none" filter="url(#neonGlow)"><path d="M4540 8989 c-235 -21 -566 -100 -740 -177 -38 -17 -42 -21 -25 -27 476 -174 827 -397 1194 -758 214 -212 385 -430 553 -707 233 -385 434 -894 518 -1315 l12 -60 25 55 c157 350 210 830 138 1245 -92 526 -348 1057 -679 1402 -278 291 -546 383 -996 342z"/><path d="M6493 8738 c173 -392 242 -625 297 -1000 87 -602 20 -1310 -185 -1936 -169 -517 -448 -954 -795 -1244 -157 -131 -387 -278 -530 -339 l-56 -23 86 -79 c423 -394 978 -695 1533 -832 430 -106 842 -129 1196 -68 l104 18 53 67 c368 461 601 1034 669 1648 20 181 20 549 -1 733 -66 601 -332 1244 -735 1774 -112 148 -171 216 -328 377 -321 327 -680 590 -1132 830 -137 72 -184 92 -176 74z"/><path d="M2950 8035 c-123 -18 -195 -38 -292 -80 -356 -154 -709 -594 -949 -1184 -37 -91 -66 -168 -63 -170 2 -2 14 5 27 16 130 115 514 321 752 403 366 125 636 167 1028 157 453 -11 817 -103 1240 -313 228 -113 456 -265 591 -393 l58 -56 -7 35 c-14 64 -76 234 -119 325 -142 302 -410 610 -717 827 -298 210 -669 366 -1009 423 -133 23 -420 28 -540 10z"/><path d="M3307 6535 c-527 -86 -980 -338 -1364 -760 -150 -165 -255 -317 -343 -500 -65 -135 -94 -216 -114 -325 -71 -376 30 -782 301 -1209 l39 -61 32 112 c73 251 220 590 357 824 341 582 817 1074 1375 1419 202 124 465 254 668 330 57 21 99 41 95 46 -21 20 -254 85 -413 115 -121 22 -514 28 -633 9z"/><path d="M3817 5560 c-490 -327 -870 -893 -1042 -1555 -78 -298 -107 -515 -109 -795 -1 -236 12 -341 58 -481 61 -183 168 -333 343 -478 242 -203 518 -356 874 -485 129 -46 439 -139 445 -133 2 2 -23 42 -56 89 -102 147 -260 416 -347 593 -209 425 -335 849 -400 1350 -25 198 -25 664 0 855 50 370 151 717 297 1023 18 37 31 69 29 72 -3 2 -44 -23 -92 -55z"/><path d="M4227 4733 c-30 -184 -32 -490 -7 -708 64 -536 270 -1056 589 -1483 224 -301 573 -594 848 -712 161 -69 271 -83 423 -54 351 66 771 276 1127 562 l82 66 -122 18 c-402 57 -888 228 -1296 455 -542 303 -1023 755 -1346 1269 -82 129 -205 381 -249 512 -21 61 -39 112 -41 112 -1 0 -5 -17 -8 -37z"/></g></svg>